<?xml version="1.0" encoding="utf-8"?>
<!-- Generator: Adobe Illustrator 27.3.1, SVG Export Plug-In . SVG Version: 6.00 Build 0)  -->
<svg version="1.1" id="Laag_1" xmlns="http://www.w3.org/2000/svg" xmlns:xlink="http://www.w3.org/1999/xlink" x="0px" y="0px"
	 viewBox="0 0 256.32 306.88" style="enable-background:new 0 0 256.32 306.88;" xml:space="preserve">
<style type="text/css">
	.st0{fill:#FFFFFF;stroke:#FFFFFF;stroke-miterlimit:10;}
	.st1{stroke:#FFFFFF;stroke-width:5;stroke-miterlimit:10;}
	.st2{fill:#FFFFFF;}
</style>
<g>
	<path class="st2" d="M256.19,196.28v-73.24v-13.03c0-4.95-5.22-8.15-9.63-5.91l-37.32,18.94v73.24h-0.01l37.33,18.95
		c4.41,2.24,9.63-0.97,9.63-5.91V196.28l0.13,0v0H256.19z"/>
	<path class="st2" d="M189.14,90.51H12c-6.6,0-12,5.4-12,12v105.55c0,6.6,5.4,12,12,12h63.19l-34.91,71.56
		c-2.57,5.27-0.38,11.62,4.89,14.2c5.27,2.57,11.62,0.38,14.2-4.89l38.86-79.64l38.86,79.64c2.57,5.27,8.93,7.46,14.2,4.89
		c5.27-2.57,7.46-8.93,4.89-14.2l-34.91-71.56h67.9c6.6,0,12-5.4,12-12V102.51C201.14,95.91,195.74,90.51,189.14,90.51z"/>
	<path class="st2" d="M145.82,0c-22.32,0-40.42,18.1-40.42,40.42s18.1,40.42,40.42,40.42c22.32,0,40.42-18.1,40.42-40.42
		S168.14,0,145.82,0z M145.82,8.83c6.4,0,11.59,5.19,11.59,11.59s-5.19,11.59-11.59,11.59s-11.59-5.19-11.59-11.59
		S139.42,8.83,145.82,8.83z M125.82,52.01c-6.4,0-11.59-5.19-11.59-11.59s5.19-11.59,11.59-11.59s11.59,5.19,11.59,11.59
		S132.22,52.01,125.82,52.01z M145.82,72.01c-6.4,0-11.59-5.19-11.59-11.59s5.19-11.59,11.59-11.59s11.59,5.19,11.59,11.59
		S152.22,72.01,145.82,72.01z M165.82,52.01c-6.4,0-11.59-5.19-11.59-11.59s5.19-11.59,11.59-11.59s11.59,5.19,11.59,11.59
		S172.22,52.01,165.82,52.01z"/>
	<path class="st2" d="M55.82,0C33.49,0,15.4,18.1,15.4,40.42s18.1,40.42,40.42,40.42c22.32,0,40.42-18.1,40.42-40.42
		S78.14,0,55.82,0z M55.82,8.83c6.4,0,11.59,5.19,11.59,11.59s-5.19,11.59-11.59,11.59s-11.59-5.19-11.59-11.59
		S49.42,8.83,55.82,8.83z M35.82,52.01c-6.4,0-11.59-5.19-11.59-11.59s5.19-11.59,11.59-11.59s11.59,5.19,11.59,11.59
		S42.22,52.01,35.82,52.01z M55.82,72.01c-6.4,0-11.59-5.19-11.59-11.59s5.19-11.59,11.59-11.59s11.59,5.19,11.59,11.59
		S62.22,72.01,55.82,72.01z M75.82,52.01c-6.4,0-11.59-5.19-11.59-11.59s5.19-11.59,11.59-11.59s11.59,5.19,11.59,11.59
		S82.22,52.01,75.82,52.01z"/>
</g>
</svg>
