<?xml version="1.0" encoding="UTF-8"?>
<svg id="Laag_1" data-name="Laag 1" xmlns="http://www.w3.org/2000/svg" viewBox="0 0 528.35 133.4">
  <defs>
    <style>
      .cls-1 {
        fill: #fff;
      }
    </style>
  </defs>
  <g>
    <path class="cls-1" d="m325.68,57.3c5.93,3.15,8.89,8.56,8.89,16.21,0,5.56-2.19,12.6-6.58,21.12-4.88,9.51-9.85,14.27-14.92,14.27-.99,0-2.08-.48-3.29-1.44-1.21-.96-2.39-1.9-3.57-2.83v15.75c0,.8.15,1.73.46,2.78.43,1.48.71,2.5.83,3.06.12.56-.11,1.56-.69,3.01-.59,1.45-1.44,2.24-2.55,2.36-1.11.12-3.52-.65-7.23-2.32-3.89-1.73-6.3-3.27-7.23-4.63-.55-.86-.55-2.16,0-3.89.43-1.3.65-2.32.65-3.06v-57.26c0-.37-.22-1.05-.65-2.04-.43-.99-.62-1.7-.55-2.13.37-2.96,1.48-4.45,3.33-4.45.31,0,1.56.36,3.75,1.07,2.19.71,3.94,1.1,5.24,1.16,1.85.06,4.21-.43,7.09-1.48,2.87-1.05,4.96-1.57,6.25-1.57.74,0,1.48.09,2.22.28,1.42.37,2.9,1.3,4.45,2.78,1.85,1.73,3.21,2.81,4.08,3.24Zm-7.69,7.13c-1.42,0-3.4.77-5.93,2.32-2.53,1.54-4.48,3.24-5.84,5.1v22.33c3.34-1.05,6.49-4.85,9.45-11.4,2.72-5.93,4.08-10.96,4.08-15.1,0-2.16-.59-3.24-1.76-3.24Z"/>
    <path class="cls-1" d="m359.22,56.01c0,.43-.14,1.02-.42,1.76-.28.74-.45,1.21-.51,1.39-.37,1.24-.74,3.15-1.11,5.74v56.89c0,.74.18,1.41.56,1.99.37.59.56,1.07.56,1.44,0,3.95-.74,6.08-2.23,6.39-.55.12-2.72-.28-6.49-1.21-3.95-.99-6.24-1.76-6.86-2.32-1.36-1.17-2.04-2.25-2.04-3.24,0-.25.12-.52.37-.83.25-.31.37-.83.37-1.58V57.12c0-.37-.11-.76-.32-1.16-.22-.4-.33-.79-.33-1.16.12-1.48,1.27-2.47,3.43-2.96.68-.12,2.1-.12,4.26,0,2.65.19,4.88.53,6.67,1.02,2.72.74,4.08,1.79,4.08,3.15Z"/>
    <path class="cls-1" d="m413.51,109.28c-.18,1.54-.77,2.78-1.76,3.71-1.79,3.83-4.54,7.69-8.25,11.58-4.02,4.14-7.26,6.21-9.73,6.21-.37,0-.71-.03-1.02-.09-2.72-.87-5.78-1.95-9.17-3.24-6.05-2.47-10.69-7.2-13.9-14.18-2.84-6.3-4.26-13.62-4.26-21.96,0-10.19,1.94-19.18,5.84-26.96,4.14-8.28,9.33-12.57,15.57-12.88,2.41-.12,5.94,1.11,10.61,3.71,4.66,2.59,7.74,5.17,9.22,7.74,1.48,2.56,2.5,8.17,3.06,16.82.12,1.85-.13,3.74-.74,5.65-.74,2.29-1.7,3.34-2.87,3.15-2.16-.31-4.88-.99-8.15-2.04-3.95-1.3-6.09-2.38-6.39-3.24-.13-.31-.18-.59-.18-.83,0-.56.26-1.25.79-2.08.52-.83.79-1.53.79-2.08.31-2.53.46-4.91.46-7.13,0-3.21-.37-5.43-1.11-6.67-3.71,2.72-6.52,7.26-8.43,13.62-1.61,5.37-2.41,11.46-2.41,18.25,0,5.25.46,9.93,1.39,14.04.93,4.11,2.04,6.59,3.33,7.46.62.37,2.33-.88,5.14-3.75s4.62-5.17,5.42-6.9c.06-.06.34-1.05.83-2.96.37-1.11.86-1.79,1.48-2.04,1.05-.37,3.75.51,8.11,2.64,4.35,2.13,6.47,3.63,6.35,4.49Z"/>
    <path class="cls-1" d="m469.57,114.66c.18,1.54-.87,4.45-3.15,8.71-2.41,4.45-4.39,6.58-5.93,6.39-1.85-.25-5.78-3.92-11.77-11.03-6.67-7.97-10.78-12.48-12.32-13.53v17.05c0,.37.18,1.02.56,1.95.37.93.59,1.61.65,2.04.31,2.47-.22,4.08-1.58,4.82-.62.37-1.64.56-3.06.56-2.72,0-5.37-.53-7.97-1.58-2.9-1.17-4.35-2.53-4.35-4.08V58.14c0-1.17.4-2.49,1.21-3.94.8-1.45,1.7-2.36,2.69-2.73.18-.06.46-.09.83-.09,1.79,0,4.34.68,7.64,2.04,3.3,1.36,5.11,2.5,5.42,3.43.12.43-.18,2.69-.93,6.76-.8,4.63-1.21,8.15-1.21,10.56,0,.8.03,1.51.09,2.13l15.94-24.46c.93-1.42,2.1-2.1,3.52-2.04,1.54.06,3.83,1.05,6.86,2.97,3.4,2.22,5.13,4.32,5.19,6.3,0,.56-2.47,4.02-7.41,10.38-6.24,7.91-11.12,14.89-14.64,20.94l18.72,21.5c.43.49,1.42.9,2.96,1.2,1.3.31,1.98.83,2.04,1.58Z"/>
    <path class="cls-1" d="m528.22,116.42c.55,1.05-.54,3.63-3.29,7.74-2.75,4.11-5.05,6.13-6.9,6.07-1.98-.06-3.55-1.11-4.72-3.15-.18-.62-.65-1.51-1.39-2.69l-19.55-18.25v17.14c0,.68.26,1.54.79,2.6.52,1.05.79,1.82.79,2.32,0,1.85-1.21,2.87-3.61,3.06-1.85.19-4.6-.15-8.25-1.02-3.95-.87-5.93-1.79-5.93-2.78,0-.31.08-.73.23-1.25.15-.52.23-1.19.23-1.99V59.53c0-.43-.09-.82-.28-1.16-.18-.34-.28-.6-.28-.79.06-1.67,1.3-2.65,3.71-2.96.74-.12,2.42.17,5.05.88,2.62.71,4.49,1.04,5.6.97,1.05-.06,3.2-.91,6.44-2.55,3.24-1.64,6.07-2.46,8.48-2.46.93,0,1.88.09,2.87.28,1.73.37,3.3,1.17,4.72,2.41,1.42,1.24,2.78,2.47,4.08,3.71,3.4,3.21,5.16,4.91,5.28,5.1,1.61,1.85,2.47,3.92,2.6,6.21.37,7.17-5.74,16.37-18.35,27.61,2.59,2.35,8.31,8.06,17.14,17.14.56.18,1.36.56,2.41,1.11.62.31,1.33.77,2.13,1.39Zm-20.48-51.8c-2.9,0-8.03,3.03-15.38,9.08v14.18c2.65-1.05,6.15-4.23,10.47-9.54,4.32-5.31,6.49-9.26,6.49-11.86,0-1.24-.53-1.85-1.57-1.85Z"/>
  </g>
  <path class="cls-1" d="m315.24,33.71c-.36-.45-.74-.89-1.15-1.29-2.54-2.44-5.56-4.04-8.86-5.19-5.4-1.88-10.76-2.21-16.23-.2-3.47,1.28-7.05,2.28-10.57,3.43-1.69.55-3.41.84-5.19.72-.75-.05-1.32-.42-1.39-1.07-.04-.41.39-.93.73-1.29.44-.46,1.33-.59,1.72-.81.49-.28,1-.54,1.55-.64,5.74-1.11,9.97-3.86,12.2-9.04,1.58-3.68,2.26-7.51,1.69-11.43-.29-1.98-1.1-3.93-1.97-5.75-.66-1.41-1.92-1.48-3.11-.43-.55.48-1.06,1.04-1.48,1.63-1.56,2.15-3.04,4.36-4.61,6.49-1.31,1.77-2.86,3.29-5.01,4.02-1.54.52-3.08,1.05-4.65,1.5-1.02.29-2.04.53-3.05.71-1.86.33-3.13,2.13-2.64,3.96.33,1.2.52,2.44.58,3.72.39,1.75.51,3.49.36,5.24.02.24.04.49.05.73.08,1.84-.11,3.65-.52,5.38-.13,1.27-.37,2.52-.73,3.73-.77,4.73-3.33,9.11-6.54,12.61-1.39,1.52-3.01,2.74-4.77,3.71-2.48,3.09-3.9,6.76-4.64,10.8-1.1,5.99-1.36,12.01-.44,18.05.33,2.21.72,4.41,1.23,6.58.52,2.18,1.65,4.05,3.27,5.65,1.24,1.23,2.38,2.6,3.43,4,3.98,5.32,3.56,11-.23,16.15-2.84,3.85-6.75,6.21-11.47,7.1-1.06.2-2.16.15-3.62.24-6.95-.17-12.48-3.37-15.92-9.82-2.47-4.63-2-9.2,1.09-13.45.84-1.16,1.68-2.39,2.74-3.33,2.73-2.43,4.08-5.52,4.73-8.99,1.14-6.1,1.61-12.24.68-18.42-.33-2.18-.68-4.35-1.17-6.5-1.03-4.54-3.57-8.14-7.1-11.12-2.35-1.98-4.47-4.18-5.38-7.21-.3-1-.56-2.02-.76-3.04-.84-2.8-1.21-5.78-1.16-8.77.01-.86.11-1.71.2-2.56.36-3.23.58-6.72,1.67-9.83,0-.02,0-.03.01-.05.56-2-.8-3.98-2.87-4.15-.6-.05-1.21-.14-1.82-.26-2.77-.58-5.48-1.47-8.21-2.23-2.03-.56-3.59-1.79-4.88-3.4-.66-.82-1.28-1.68-1.9-2.53-1.05-1.45-2.04-2.95-3.12-4.38-.84-1.13-2.19-1.79-3.59-1.72-1.44.07-1.64.77-1.91,1.42-2.13,5.13-1.77,10.24.19,15.32,1.63,4.2,4.49,7.17,8.81,8.63,1.6.54,3.23,1,4.83,1.56.78.27,1.58.58,2.23,1.06.35.26.65.98.54,1.37-.11.38-.76.79-1.21.83-.94.09-1.95.12-2.86-.12-2.84-.75-5.64-1.64-8.45-2.47-3.15-.93-6.26-2.12-9.47-2.72-4.64-.86-9.08.42-13.36,2.16-3.12,1.27-5.91,3.07-8.06,5.71-2.69,3.3-2.44,6.67.76,9.88.44.44.93.84,1.44,1.21,3.43,2.46,7.33,3.66,11.48,4.14,5.48.63,10.64-.26,15.41-3.1,1.56-.93,3.09-1.94,4.71-2.76,1.62-.82,3.04.11,3.19,1.96.04.44,0,.9,0,1.34-.04,3.93-.14,7.86.58,11.77,1.16,6.26,3.38,11.99,7.86,16.66,4.57,4.76,5.64,10.3,3.7,16.49-.6,1.92-1.49,3.74-2.09,5.66-1.29,4.1-1.43,8.32-.96,12.54.64,5.83,2.84,10.97,7.52,14.72,4.14,3.31,8.73,5.9,13.76,7.67,5.41,1.91,10.81,2.03,16.26.2,4.64-1.55,8.89-3.81,12.8-6.66,2.63-1.92,5.96-5.82,7.26-8.81,1.21-2.8,1.86-5.73,2.01-8.77.25-4.81-.2-9.52-2.25-13.97-1.08-2.35-1.74-4.82-1.85-7.4-.2-4.51,1.47-8.27,4.46-11.59,1.31-1.45,2.56-2.95,3.57-4.62,3.86-6.35,5.16-13.36,5-20.65,0-1.5-.02-3.01,0-4.51.03-1.87,1.54-2.86,3.2-2.05,1.09.53,2.13,1.17,3.14,1.84,6.15,4.15,12.88,5.02,20.01,3.52,3.46-.73,6.67-2.06,9.37-4.39,3.57-3.07,4.14-6.61,1.2-10.35Zm-97.34,33.34c-2.19.18-4.51-2.25-4.49-4.51.02-2.47,2.08-4.49,4.57-4.47,2.45.02,4.24,2.01,4.24,4.73.15,2.12-1.67,4.04-4.32,4.25Zm43.13-.04c-1.98-.1-4.47-1.54-4.26-4.47,0-2.53,1.85-4.46,4.26-4.47,2.52,0,4.58,2.1,4.52,4.62-.05,2.33-2.19,4.43-4.53,4.31Z"/>
  <path class="cls-1" d="m243.34,114.47c.08-3.76,2.04-6.41,5.34-7.14,1.15-.25,2.16-.01,2.95.9.62.72.9,1.56.54,2.49-.5,1.28-1.57,1.8-2.86,1.89-2.69.2-3.3.67-4.04,3.2-.04.15-.07.33-.17.44-.27.29-.57.55-.85.82-.21-.3-.51-.57-.62-.9-.17-.54-.2-1.13-.29-1.69Z"/>
  <path class="cls-1" d="m236.26,114.36c-.3.88-.49,1.61-.81,2.29-.31.66-.71.56-.98-.08-.21-.5-.38-1.01-.57-1.52-.57-1.58-1.61-2.33-3.3-2.42-.32-.02-.64-.02-.95-.08-1.83-.35-2.78-1.56-2.47-3.12.31-1.57,1.89-2.52,3.62-2.1,1.79.43,3.28,1.39,4.08,3.06.61,1.27.94,2.68,1.38,3.99Z"/>
  <g>
    <path class="cls-1" d="m82.28,127.69c-.43,2.65-1.17,4.11-2.23,4.35-1.48.37-4.32-.03-8.52-1.2-4.45-1.24-6.98-2.47-7.6-3.71-.18-.43-.28-.89-.28-1.39,0-.37.08-.97.23-1.81.15-.83.23-1.53.23-2.08v-42.07c-2.9,5.68-6.7,18.47-11.4,38.36-.06.25-.09.53-.09.83,0,.62.11,1.61.32,2.96.22,1.36.32,2.22.32,2.59-.06,1.92-.15,3.15-.28,3.71-.31,1.24-.96,1.98-1.95,2.22-.62.18-1.7.28-3.24.28-8.03,0-13.56-1.39-16.59-4.17-.49-.43-.68-1.2-.56-2.32.12-1.36.12-2.25,0-2.69-2.29-7.04-4.32-13.22-6.11-18.53-4.32-12.85-7.13-20.41-8.43-22.7v36.88c0,.8.25,1.92.74,3.34.62,1.73.96,2.81,1.02,3.24.24,1.24.31,2.72.18,4.45-.13,2.1-.56,3.4-1.3,3.89-.37.25-1.08.37-2.13.37-2.29,0-5-.4-8.15-1.2-3.4-.8-5.41-1.64-6.02-2.5-.31-.43-.46-.96-.46-1.57,0-.37.11-.99.32-1.85.22-.86.33-1.54.33-2.04V57.64c0-.74.31-1.59.93-2.55.62-.96,1.33-1.59,2.13-1.9,1.05-.43,5.1.31,12.14,2.22,7.35,1.92,11.24,3.58,11.67,5,.18.56.22,1.3.09,2.22-.18,1.3-.28,2.07-.28,2.32,0,.56.09,1.05.28,1.48l12.51,33.63c1.73-5.5,4.88-16.65,9.45-33.45,2.29-8.58,4.14-13.06,5.56-13.43.43-.12.93-.18,1.48-.18,1.05,0,2.81.28,5.28.83,2.72.68,4.6,1.05,5.65,1.11,4.88.43,7.69.71,8.43.83,2.9.56,4.54,1.58,4.91,3.06.12.43.18.9.18,1.39,0,.62-.16,1.5-.46,2.64-.31,1.14-.46,1.99-.46,2.55v56.71c0,.62.39,1.54,1.16,2.78.77,1.24,1.1,2.16.97,2.78Z"/>
    <path class="cls-1" d="m118.97,131.58c-1.3.12-2.75-.05-4.35-.51-1.61-.46-3.18-.94-4.73-1.44-1.85-.49-4.76-1.39-8.71-2.69-4.94-2.16-8.68-6.42-11.21-12.79-2.22-5.62-3.34-12.42-3.34-20.38,0-6.49,1.11-14.05,3.34-22.7,3.02-11.61,6.95-17.42,11.77-17.42.43,0,1.03.11,1.81.32.77.22,1.37.36,1.81.42,4.57-1.3,7.5-1.95,8.8-1.95.62,0,1.24.03,1.85.09,7.41.93,13.25,5.56,17.51,13.9,3.83,7.54,5.74,16.52,5.74,26.96,0,9.88-1.73,18.38-5.19,25.48-3.71,7.72-8.74,11.95-15.1,12.69Zm-1.67-67.92c-1.36-.37-2.7,1.45-4.03,5.47-1.33,4.02-2.67,6.02-4.03,6.02-.31,0-.76-.17-1.34-.51-.59-.34-1.07-.54-1.44-.6-2.1,4.63-3.15,11.24-3.15,19.83,0,6.73.71,12.51,2.13,17.33,1.61,5.37,3.83,8.34,6.67,8.9,3.34.62,6.02-2.81,8.06-10.28,1.79-6.55,2.69-14.33,2.69-23.35,0-6.12-.46-11.24-1.39-15.38-.99-4.45-2.38-6.92-4.17-7.41Z"/>
    <path class="cls-1" d="m177.34,131.58c-1.3.12-2.75-.05-4.35-.51-1.61-.46-3.18-.94-4.73-1.44-1.85-.49-4.76-1.39-8.71-2.69-4.94-2.16-8.68-6.42-11.21-12.79-2.22-5.62-3.34-12.42-3.34-20.38,0-6.49,1.11-14.05,3.34-22.7,3.02-11.61,6.95-17.42,11.77-17.42.43,0,1.03.11,1.81.32.77.22,1.37.36,1.81.42,4.57-1.3,7.5-1.95,8.8-1.95.62,0,1.24.03,1.85.09,7.41.93,13.25,5.56,17.51,13.9,3.83,7.54,5.74,16.52,5.74,26.96,0,9.88-1.73,18.38-5.19,25.48-3.71,7.72-8.74,11.95-15.1,12.69Zm-1.67-67.92c-1.36-.37-2.7,1.45-4.03,5.47-1.33,4.02-2.67,6.02-4.03,6.02-.31,0-.76-.17-1.34-.51-.59-.34-1.07-.54-1.44-.6-2.1,4.63-3.15,11.24-3.15,19.83,0,6.73.71,12.51,2.13,17.33,1.61,5.37,3.83,8.34,6.67,8.9,3.34.62,6.02-2.81,8.06-10.28,1.79-6.55,2.69-14.33,2.69-23.35,0-6.12-.46-11.24-1.39-15.38-.99-4.45-2.38-6.92-4.17-7.41Z"/>
  </g>
</svg>