<?xml version="1.0" encoding="UTF-8"?>
<svg id="Laag_1" data-name="Laag 1" xmlns="http://www.w3.org/2000/svg" viewBox="0 0 122.22 105">
  <defs>
    <style>
      .cls-1 {
        fill: #fff;
      }
    </style>
  </defs>
  <path class="cls-1" d="m120.73,26.53c-.28-.35-.58-.7-.9-1.01-2-1.92-4.37-3.18-6.98-4.08-4.25-1.48-8.47-1.74-12.78-.15-2.73,1.01-5.55,1.8-8.32,2.7-1.33.43-2.68.66-4.09.57-.59-.04-1.04-.33-1.09-.84-.04-.32.31-.74.58-1.02.35-.37,1.05-.46,1.36-.64.39-.22.78-.42,1.22-.51,4.52-.87,7.85-3.03,9.6-7.11,1.24-2.9,1.78-5.91,1.33-9-.23-1.56-.87-3.09-1.55-4.53-.52-1.11-1.51-1.16-2.44-.34-.43.38-.83.82-1.17,1.28-1.22,1.69-2.39,3.43-3.63,5.11-1.03,1.39-2.25,2.59-3.94,3.17-1.21.41-2.43.83-3.66,1.18-.8.23-1.6.42-2.4.56-1.46.26-2.46,1.68-2.07,3.11.26.95.41,1.92.45,2.93.31,1.38.4,2.75.29,4.13.01.19.03.38.04.58.07,1.45-.08,2.87-.41,4.24-.1,1-.29,1.98-.58,2.93-.61,3.73-2.62,7.17-5.15,9.92-1.1,1.19-2.37,2.16-3.76,2.92-1.95,2.43-3.07,5.32-3.65,8.5-.87,4.71-1.07,9.46-.35,14.21.26,1.74.57,3.47.97,5.18.41,1.72,1.3,3.18,2.57,4.45.98.97,1.87,2.04,2.7,3.15,3.13,4.18,2.8,8.66-.18,12.71-2.24,3.03-5.31,4.89-9.03,5.59-.83.16-1.7.12-2.85.19-5.47-.13-9.82-2.65-12.53-7.73-1.94-3.64-1.57-7.24.86-10.59.66-.92,1.32-1.88,2.15-2.62,2.15-1.91,3.21-4.35,3.72-7.08.89-4.8,1.27-9.64.54-14.5-.26-1.71-.54-3.43-.92-5.12-.81-3.57-2.81-6.41-5.59-8.75-1.85-1.56-3.52-3.29-4.24-5.67-.24-.79-.44-1.59-.6-2.39-.66-2.21-.96-4.55-.92-6.91.01-.68.08-1.35.16-2.02.28-2.54.45-5.29,1.31-7.74,0-.01,0-.02.01-.04.44-1.57-.63-3.13-2.26-3.27-.48-.04-.95-.11-1.43-.21-2.18-.46-4.31-1.16-6.46-1.75-1.59-.44-2.82-1.41-3.84-2.67-.52-.65-1.01-1.32-1.5-1.99-.83-1.14-1.61-2.32-2.45-3.45-.66-.89-1.72-1.41-2.83-1.35-1.13.06-1.29.6-1.5,1.12-1.67,4.04-1.39,8.06.15,12.06,1.28,3.31,3.53,5.64,6.93,6.79,1.26.43,2.54.79,3.8,1.23.61.21,1.24.46,1.75.83.28.2.51.77.42,1.08-.09.3-.6.62-.95.66-.74.07-1.54.1-2.25-.09-2.23-.59-4.44-1.29-6.65-1.94-2.48-.73-4.93-1.67-7.46-2.14-3.65-.68-7.15.33-10.52,1.7-2.46,1-4.65,2.41-6.34,4.49-2.11,2.59-1.92,5.25.6,7.77.35.35.73.66,1.13.95,2.7,1.94,5.77,2.88,9.04,3.26,4.31.5,8.37-.2,12.13-2.44,1.23-.73,2.43-1.53,3.71-2.17,1.28-.64,2.39.08,2.51,1.54.03.35,0,.7,0,1.06-.03,3.1-.11,6.19.46,9.26.91,4.93,2.66,9.44,6.19,13.11,3.6,3.75,4.44,8.1,2.91,12.98-.47,1.51-1.17,2.94-1.65,4.45-1.01,3.22-1.12,6.55-.76,9.87.51,4.59,2.23,8.64,5.92,11.59,3.26,2.61,6.87,4.64,10.83,6.04,4.26,1.5,8.51,1.6,12.8.16,3.65-1.22,7-3,10.08-5.25,2.07-1.51,4.69-4.58,5.71-6.93.95-2.2,1.46-4.51,1.58-6.9.2-3.79-.15-7.49-1.77-10.99-.85-1.85-1.37-3.79-1.46-5.82-.16-3.55,1.16-6.51,3.51-9.13,1.03-1.14,2.02-2.32,2.81-3.64,3.04-5,4.06-10.51,3.93-16.25,0-1.18-.01-2.37,0-3.55.02-1.47,1.21-2.25,2.52-1.61.86.42,1.68.92,2.47,1.45,4.84,3.27,10.14,3.95,15.75,2.77,2.72-.57,5.25-1.62,7.38-3.45,2.81-2.42,3.26-5.21.94-8.14Zm-76.61,26.24c-1.73.14-3.55-1.77-3.54-3.55.01-1.95,1.64-3.54,3.6-3.52,1.93.02,3.34,1.58,3.34,3.72.12,1.67-1.31,3.18-3.4,3.35Zm33.95-.04c-1.56-.08-3.52-1.21-3.35-3.52,0-1.99,1.46-3.51,3.36-3.52,1.98,0,3.6,1.65,3.56,3.64-.04,1.84-1.72,3.49-3.57,3.4Z"/>
  <path class="cls-1" d="m64.14,90.1c.06-2.96,1.61-5.05,4.2-5.62.91-.2,1.7-.01,2.32.71.49.57.71,1.23.43,1.96-.39,1.01-1.23,1.41-2.25,1.49-2.12.16-2.6.53-3.18,2.52-.04.12-.05.26-.13.35-.21.23-.45.43-.67.64-.17-.24-.4-.45-.48-.71-.13-.43-.16-.89-.23-1.33Z"/>
  <path class="cls-1" d="m58.57,90.01c-.24.69-.38,1.27-.64,1.8-.25.52-.56.44-.77-.06-.16-.39-.3-.8-.45-1.2-.45-1.24-1.27-1.84-2.6-1.91-.25-.01-.5-.02-.75-.07-1.44-.28-2.19-1.23-1.95-2.46.24-1.24,1.49-1.98,2.85-1.66,1.41.34,2.58,1.09,3.21,2.41.48,1,.74,2.11,1.09,3.14Z"/>
</svg>