<?xml version="1.0" encoding="UTF-8"?>
<svg id="Laag_1" data-name="Laag 1" xmlns="http://www.w3.org/2000/svg" viewBox="0 0 122.17 104.95">
  <defs>
    <style>
      .cls-1 {
        fill: #fff;
      }
    </style>
  </defs>
  <path class="cls-1" d="m91.63,39.05c.12,5.47-.8,10.74-3.52,15.55-.87,1.54-1.99,2.97-3.18,4.29-2.38,2.62-3.72,5.6-3.55,9.17.09,2.03.61,3.97,1.46,5.82,1.62,3.5,1.96,7.2,1.77,10.99-.12,2.41-.64,4.73-1.6,6.94-1.01,2.33-2.44,4.35-4.43,5.93-3.42,2.71-7.18,4.81-11.33,6.2-4.29,1.44-8.54,1.34-12.8-.16-3.96-1.4-7.57-3.43-10.83-6.03-3.69-2.95-5.41-6.99-5.92-11.58-.37-3.32-.26-6.65.76-9.87.47-1.51,1.17-2.94,1.65-4.45,1.53-4.87.68-9.22-2.91-12.97-3.52-3.67-5.27-8.18-6.19-13.11-.57-3.08-.49-6.16-.46-9.26,0-.35.03-.71,0-1.06-.12-1.46-1.23-2.18-2.51-1.54-1.28.64-2.48,1.44-3.71,2.17-3.76,2.23-7.82,2.94-12.13,2.44-3.3-.38-6.39-1.34-9.11-3.31-.58-.42-1.13-.93-1.6-1.48-1.99-2.35-2-4.79-.05-7.18,1.69-2.08,3.89-3.49,6.34-4.49,3.37-1.37,6.86-2.38,10.51-1.7,2.53.47,4.97,1.41,7.45,2.14,2.22.65,4.42,1.35,6.65,1.94.71.19,1.51.16,2.25.09.35-.04.86-.36.95-.66.09-.3-.15-.87-.42-1.08-.51-.38-1.14-.62-1.75-.83-1.26-.44-2.54-.8-3.8-1.23-3.4-1.15-5.65-3.48-6.93-6.79-1.55-3.99-1.83-8.01-.15-12.05.05-.12.09-.23.15-.35.86-1.8,2.08-2.03,3.35-.49,1.18,1.43,2.19,3.01,3.29,4.51.49.67.98,1.34,1.5,1.99,1.02,1.26,2.24,2.23,3.84,2.67,2.15.59,4.28,1.3,6.46,1.75,2.48.52,4.94.2,7.36-.63,2.35-.81,4.75-1.48,7.12-2.23,3.72-1.18,7.42-1.15,11.13.04,2.06.66,4.18,1.15,6.18,1.94,3.77,1.48,7.53,1.3,11.32.21,1.23-.35,2.44-.77,3.66-1.18,1.7-.57,2.91-1.77,3.94-3.17,1.24-1.68,2.4-3.42,3.63-5.11.34-.47.74-.9,1.17-1.28.93-.82,1.92-.77,2.44.34.68,1.44,1.32,2.97,1.55,4.53.45,3.09-.09,6.1-1.33,8.99-1.49,3.47-4.12,5.55-7.65,6.63-1.22.37-2.44.77-3.66,1.17-.31.1-.65.23-.86.45-.27.28-.61.7-.58,1.02.06.51.51.8,1.09.84,1.4.09,2.75-.14,4.08-.57,2.77-.9,5.58-1.69,8.32-2.69,4.3-1.59,8.52-1.32,12.77.15,2.6.91,4.98,2.17,6.97,4.08.33.31.62.66.9,1.01,2.32,2.94,1.87,5.72-.94,8.14-2.13,1.83-4.65,2.88-7.37,3.45-5.61,1.18-10.9.5-15.74-2.77-.79-.53-1.61-1.03-2.47-1.45-1.31-.64-2.5.14-2.52,1.61-.02,1.18,0,2.37,0,3.55Zm-30.8,57.5c1.15-.07,2.02-.03,2.85-.19,3.72-.7,6.79-2.56,9.03-5.59,2.98-4.05,3.32-8.52.18-12.7-.83-1.1-1.72-2.18-2.7-3.15-1.27-1.26-2.16-2.73-2.57-4.45-.41-1.71-.71-3.44-.97-5.18-.72-4.75-.52-9.49.35-14.2.8-4.36,2.59-8.17,6.18-10.99.88-.69,1.68-1.53,2.41-2.39,1.94-2.29,2.43-5.08,2.62-7.95.23-3.42-1.02-6.19-3.7-8.32-1.59-1.26-3.35-2.22-5.26-2.91-3.96-1.42-7.92-2.53-12.22-1.29-3.39.98-6.7,2.02-9.49,4.26-1.96,1.57-3.24,3.57-3.53,6.11-.27,2.37.16,4.67.83,6.92.72,2.38,2.39,4.11,4.23,5.67,2.77,2.34,4.78,5.17,5.58,8.75.38,1.69.66,3.4.92,5.11.73,4.86.36,9.69-.54,14.49-.51,2.73-1.57,5.17-3.72,7.07-.84.74-1.49,1.71-2.15,2.62-2.43,3.35-2.8,6.94-.86,10.58,2.71,5.08,7.06,7.59,12.52,7.73Zm13.85-47.35c-.17,2.31,1.79,3.44,3.35,3.52,1.84.09,3.53-1.56,3.56-3.39.04-1.99-1.58-3.65-3.56-3.64-1.9,0-3.35,1.53-3.35,3.51Zm-27.19.21c0-2.14-1.41-3.71-3.34-3.72-1.96-.02-3.58,1.57-3.6,3.52-.01,1.78,1.81,3.69,3.54,3.55,2.09-.17,3.52-1.67,3.4-3.35Z"/>
  <path d="m64.11,90.06c.07.45.1.9.23,1.33.08.26.32.48.48.71.23-.21.46-.42.67-.64.08-.09.1-.23.13-.35.58-1.99,1.07-2.36,3.18-2.51,1.02-.08,1.86-.48,2.25-1.49.28-.73.06-1.39-.43-1.96-.62-.72-1.41-.91-2.32-.71-2.59.57-4.14,2.66-4.2,5.62Zm-5.57-.08c-.35-1.03-.6-2.14-1.09-3.14-.63-1.31-1.8-2.07-3.21-2.41-1.36-.32-2.6.42-2.85,1.66-.24,1.23.51,2.18,1.95,2.46.24.05.5.05.75.07,1.33.07,2.15.67,2.6,1.91.15.4.28.8.44,1.2.21.5.52.58.77.06.25-.53.4-1.11.64-1.8Z"/>
  <path class="cls-1" d="m64.11,90.06c.06-2.96,1.61-5.05,4.2-5.62.91-.2,1.7-.01,2.32.71.49.57.71,1.23.43,1.96-.39,1.01-1.23,1.41-2.25,1.49-2.12.16-2.6.53-3.18,2.51-.04.12-.05.26-.13.35-.21.23-.45.43-.67.64-.17-.24-.4-.45-.48-.71-.13-.43-.16-.89-.23-1.33Z"/>
  <path class="cls-1" d="m58.54,89.98c-.24.69-.38,1.27-.64,1.8-.25.52-.56.44-.77-.06-.16-.39-.3-.8-.44-1.2-.45-1.24-1.26-1.83-2.6-1.91-.25-.01-.5-.02-.75-.07-1.44-.28-2.19-1.23-1.95-2.46.24-1.24,1.49-1.98,2.85-1.66,1.41.34,2.58,1.09,3.21,2.41.48,1,.74,2.11,1.09,3.14Z"/>
</svg>